PathFileType  4	(X/Y/Z) C:\Users\antoi\Documents\MyRepositories\mobilecap\ResultsAnalysis
DataRate	CameraRate	NumFrames	NumMarkers	Units	OrigDataRate	OrigDataStartFrame	OrigNumFrames
100.0	100.0	5	51	mm	100.0	128	146
Frame#	Time	r_knee			r_shank_antsup			r_ankle			r_calc			r_5meta			r_toe			L_knee			L_shank_antsup			L_ankle			L_calc			L_5meta			L_toe			r_sh2			r_sh3			r_sh4			L_sh2			L_sh3			r_thigh1			r_thigh2			r_thigh3			r_thigh4			r_thigh5			L_thigh1			L_thigh2			L_thigh3			L_thigh4			r.ASIS			r.PSIS			L.ASIS			L.PSIS			C7			R_Shoulder			L_Shoulder			R_Sternum			L_Sternum			R_humerus			R_elbow_med			R_elbow_lat			R_forearm			R_wrist_radius			R_wrist_ulna			L_humerus			L_elbow_med			L_elbow_lat			L_forearm			L_wrist_radius			L_wrist_ulna			R_HJC			L_HJC			R_HJC_reg			L_HJC_reg			
		X1	Y1	Z1	X2	Y2	Z2	X3	Y3	Z3	X4	Y4	Z4	X5	Y5	Z5	X6	Y6	Z6	X7	Y7	Z7	X8	Y8	Z8	X9	Y9	Z9	X10	Y10	Z10	X11	Y11	Z11	X12	Y12	Z12	X13	Y13	Z13	X14	Y14	Z14	X15	Y15	Z15	X16	Y16	Z16	X17	Y17	Z17	X18	Y18	Z18	X19	Y19	Z19	X20	Y20	Z20	X21	Y21	Z21	X22	Y22	Z22	X23	Y23	Z23	X24	Y24	Z24	X25	Y25	Z25	X26	Y26	Z26	X27	Y27	Z27	X28	Y28	Z28	X29	Y29	Z29	X30	Y30	Z30	X31	Y31	Z31	X32	Y32	Z32	X33	Y33	Z33	X34	Y34	Z34	X35	Y35	Z35	X36	Y36	Z36	X37	Y37	Z37	X38	Y38	Z38	X39	Y39	Z39	X40	Y40	Z40	X41	Y41	Z41	X42	Y42	Z42	X43	Y43	Z43	X44	Y44	Z44	X45	Y45	Z45	X46	Y46	Z46	X47	Y47	Z47	X48	Y48	Z48	X49	Y49	Z49	X50	Y50	Z50	X51	Y51	Z51	

128	1.27000000	1436.38375	531.87253	-35.56274	1474.14362	458.02172	-28.66301	1479.89920	95.67616	-58.09765	1420.83409	50.36724	-102.82703	1630.27433	37.44269	-36.41171	1660.53513	73.88718	-92.49048	1232.63827	512.70666	-315.74946	1190.54048	392.43205	-324.65679	950.74277	163.04896	-290.52525	866.40002	156.24655	-253.30361	1050.92428	31.66009	-321.79452	1074.56573	51.96058	-255.08075	1491.11464	346.11317	-24.69879	1401.79276	446.26215	-4.82836	1409.42050	331.32163	-10.96844	1123.48508	453.47842	-338.31706	1051.63889	356.43249	-334.29345	1417.48482	852.08579	5.69338	1457.80822	751.65952	-14.38460	1415.67884	704.20741	12.91216	1313.09280	807.66888	11.99358	1360.70451	702.39592	2.22322	1348.64669	825.60655	-336.62507	1345.42991	689.33797	-330.46268	1230.53209	828.43101	-339.85272	1234.30856	687.62899	-334.62882	1397.76152	1033.96493	-43.89691	1200.73110	1073.86452	-111.81112	1386.97252	1013.60393	-301.60869	1195.11821	1070.89187	-214.49144	1224.92235	1583.66214	-194.48713	1264.81910	1551.59767	-22.52578	1289.27562	1562.10225	-332.44027	1376.06456	1510.45684	-147.32842	1381.86541	1508.37951	-203.21173	1202.24827	1288.49794	65.33954	1180.30692	1197.67744	-15.33449	1170.42226	1203.84102	67.99605	1226.62946	1057.67285	109.29108	1268.90410	949.03388	118.01939	1223.10643	950.50763	118.87745	1385.12655	1352.04001	-458.09022	1384.86995	1232.03828	-426.99205	1414.86456	1266.48964	-484.74679	1580.28320	1208.33184	-469.73024	1669.61609	1178.94050	-438.14614	1660.50612	1149.26746	-463.80665	1310.14883	957.74800	-39.47770	1299.80259	942.16836	-269.08012	1322.04158	952.39339	-73.97877	1312.72142	947.46431	-244.42285	
129	1.28000000	1446.23394	533.01094	-34.87701	1482.81100	458.28954	-28.02136	1481.05537	95.48116	-57.70908	1421.38028	50.83966	-102.72891	1630.77035	36.31242	-36.62820	1661.11411	71.86822	-93.14580	1253.38286	512.50436	-316.40384	1208.35983	393.82223	-326.14504	961.79491	172.29653	-289.93144	877.73205	171.26590	-251.85057	1052.26176	34.10712	-321.31535	1076.53689	52.50284	-255.12082	1497.65878	346.06297	-24.14462	1410.55477	447.87744	-3.28528	1415.92918	332.80234	-9.33174	1143.09740	457.24368	-338.10390	1068.27553	362.71657	-333.45425	1429.69450	853.63795	6.09476	1469.52318	752.96719	-13.74096	1427.18383	705.84258	13.72206	1325.35501	809.95566	13.28315	1372.14545	704.40221	3.35230	1364.30198	826.60509	-335.82503	1363.77501	690.19985	-330.74692	1246.30750	826.84395	-338.62697	1252.80555	686.45602	-334.68961	1410.49564	1036.16099	-42.85939	1213.32669	1075.55119	-111.46126	1399.74261	1014.71609	-300.27620	1207.86976	1071.91709	-214.31783	1236.31696	1585.11826	-191.37048	1276.82369	1552.25544	-19.68051	1300.13022	1564.60140	-329.55823	1387.80312	1512.39048	-144.99121	1393.44426	1510.46224	-200.79807	1216.48003	1288.34336	67.32353	1194.73869	1198.11643	-13.60192	1185.18245	1203.68498	69.70038	1240.41331	1057.09862	110.27374	1281.92479	948.03589	118.53010	1236.06849	949.77158	119.39174	1394.14897	1353.90858	-456.06044	1392.97567	1233.83141	-425.19826	1423.13147	1268.24011	-483.03538	1588.49418	1210.03814	-467.31755	1677.82027	1180.88857	-435.32063	1668.90334	1151.16684	-460.96061	1322.77083	959.90544	-38.28789	1312.86844	943.18915	-267.83002	1334.69532	954.68909	-72.52337	1325.65887	948.67813	-242.81385	
130	1.29000000	1455.00746	533.95922	-34.05309	1490.43830	458.41635	-27.18961	1481.80701	95.30620	-57.35618	1421.74356	51.12983	-102.58798	1631.08671	35.50302	-36.77078	1661.38329	70.32012	-93.67383	1275.25492	512.34121	-317.12827	1227.53793	395.54013	-327.53717	974.39926	182.26736	-289.26612	890.91695	187.24584	-250.35296	1054.20965	37.63800	-320.70286	1079.65197	54.15462	-254.99606	1503.24330	345.93106	-23.46550	1418.22307	449.25921	-1.76798	1421.45557	334.11432	-7.80044	1164.16266	461.15883	-337.95034	1086.35402	369.30532	-332.46492	1441.58579	855.10044	6.50786	1480.73170	754.07566	-13.04768	1438.14275	707.40572	14.67159	1337.24779	812.36399	14.75401	1382.97706	706.40500	4.63946	1380.06670	827.81971	-335.28180	1382.60672	691.31297	-331.34974	1262.18152	825.23612	-337.44735	1271.82567	685.21595	-334.96973	1423.12263	1038.44327	-41.87551	1225.77356	1077.32819	-111.07845	1412.16287	1015.98212	-299.02436	1220.39592	1073.03456	-214.09089	1247.72793	1586.67737	-188.42294	1288.90734	1553.12917	-16.94423	1311.08158	1567.17058	-326.70817	1399.55048	1514.43226	-142.72104	1405.00019	1512.61683	-198.45429	1230.71210	1288.51532	69.28669	1209.06572	1198.86621	-11.83789	1199.86094	1203.86981	71.44660	1254.26063	1056.97149	111.35842	1295.13201	947.52335	119.20622	1249.19277	949.49317	120.07144	1403.02124	1355.76144	-454.07371	1400.69541	1235.61819	-423.46425	1431.01882	1269.98375	-481.31650	1596.24933	1211.39637	-464.86964	1685.57486	1182.36881	-432.51037	1676.78569	1152.61751	-458.14691	1335.28327	962.14653	-37.14082	1325.66010	944.33717	-266.61373	1347.20040	957.09528	-71.07910	1338.31803	950.00861	-241.22392	
131	1.30000000	1462.60164	534.67779	-33.10804	1496.94009	458.36252	-26.17545	1482.24738	95.14017	-57.05365	1421.94980	51.31055	-102.41661	1631.28097	34.89964	-36.83721	1661.47746	69.16804	-94.02266	1298.09987	512.26370	-317.86854	1247.92949	397.57167	-328.73791	988.42964	192.89854	-288.51796	905.91497	203.92647	-248.80288	1056.94389	42.37100	-319.94385	1084.14986	57.04992	-254.73353	1507.82327	345.68125	-22.67654	1424.66358	450.35302	-0.46876	1425.91121	335.19925	-6.58430	1186.49997	465.20236	-337.82871	1105.75869	376.12559	-331.32910	1453.04149	856.37196	6.99924	1491.28674	754.87981	-12.24453	1448.36290	708.78076	15.74219	1348.60630	814.79571	16.26319	1393.04453	708.33242	5.97502	1395.83598	829.22317	-335.01343	1401.75748	692.67403	-332.25603	1278.09251	823.62292	-336.28722	1291.18832	683.95324	-335.35324	1435.67087	1040.68156	-41.01035	1238.09840	1079.16124	-110.60723	1424.22365	1017.32249	-297.94538	1232.69061	1074.18955	-213.73120	1259.15117	1588.28204	-185.65797	1301.07309	1554.17276	-14.34586	1322.10156	1569.73694	-323.91791	1411.29336	1516.48726	-140.54556	1416.53730	1514.77328	-196.21484	1244.88684	1288.96922	71.22945	1223.24156	1199.83208	-10.03580	1214.39023	1204.34964	73.22640	1268.14820	1057.24310	112.54540	1308.50920	947.45465	120.03982	1262.49327	949.63286	120.91615	1411.75421	1357.56335	-452.14868	1408.07748	1237.36029	-421.81854	1438.59445	1271.68525	-479.62425	1603.60958	1212.39501	-462.40923	1692.93318	1183.37306	-429.72866	1684.19977	1153.60761	-455.38224	1347.72588	964.36579	-36.06631	1338.11712	945.55643	-265.46100	1359.55336	959.56509	-69.67810	1350.63871	951.37142	-239.69578	
132	1.31000000	1469.05698	535.18020	-32.07260	1502.35367	458.13655	-25.02273	1482.45868	94.98102	-56.80993	1422.02835	51.43798	-102.22693	1631.39907	34.44991	-36.84318	1661.49534	68.36187	-94.19663	1321.67580	512.34849	-318.57148	1269.28726	399.89241	-329.66689	1003.69308	204.08320	-287.66656	922.58731	220.97275	-247.13249	1060.67248	48.34018	-319.04825	1090.13713	61.14940	-254.40598	1511.46641	345.32449	-21.80924	1429.91147	451.18130	0.50952	1429.34076	336.06785	-5.77376	1209.85463	469.36775	-337.72191	1126.30411	383.10602	-330.08751	1464.00539	857.41887	7.63694	1501.11771	755.34622	-11.26987	1457.74440	709.91428	16.91674	1359.31843	817.17421	17.67691	1402.28587	710.14474	7.25819	1411.51260	830.79473	-335.00029	1421.04056	694.28361	-333.40125	1293.98518	822.03882	-335.12046	1310.71150	682.74418	-335.73203	1448.15015	1042.75957	-40.30214	1250.31815	1081.02181	-110.02095	1435.96299	1018.66859	-297.10280	1244.76017	1075.33667	-213.19264	1270.58159	1589.87628	-183.06320	1313.32090	1555.33661	-11.90806	1333.14580	1572.23536	-321.22912	1423.02058	1518.47555	-138.49900	1428.06252	1516.87378	-194.11429	1258.94607	1289.65405	73.15945	1237.21982	1200.92227	-8.18739	1228.71740	1205.06893	75.03705	1282.05936	1057.84356	113.83241	1322.03283	947.76624	121.01192	1275.98160	950.12661	121.91750	1420.35343	1359.27418	-450.30592	1415.16949	1239.02226	-420.27873	1445.92980	1273.30175	-477.98542	1610.64859	1213.03270	-459.97825	1699.94689	1183.89165	-426.99013	1691.19817	1154.12520	-452.68286	1360.11442	966.46961	-35.09036	1350.21835	946.79977	-264.40086	1371.74638	962.05828	-68.34436	1362.59351	952.69463	-238.26304	
